<svg width="50" height="50" viewBox="0 0 50 50" fill="none" xmlns="http://www.w3.org/2000/svg">
<g clip-path="url(#clip0_1_11)">
<path d="M38.7346 0.0668265C39.607 0.185733 40.5885 0.126279 42.0606 2.44495C42.4106 2.99605 42.4707 3.7497 42.351 4.58526C42.0677 6.56206 40.7773 8.99726 39.9341 10.2927C39.4602 11.0656 43.4238 19.2107 45.0596 23.2535C46.6953 27.2963 47.6768 25.9289 49.258 26.5234C50.523 26.999 49.8637 29.2509 48.2825 28.7826C47.9957 28.6977 48.8063 29.786 45.6652 28.3665C44.3142 27.7559 42.8422 26.4045 42.6059 25.9289C40.4794 22.1239 36.2591 14.7279 36.39 15.5841C36.5208 16.4402 32.7004 17.6055 30.7738 18.0811C30.1377 20.5781 29.1926 25.8457 30.5012 26.9396C31.8098 28.0335 31.9189 29.5357 31.8098 30.1501C24.8305 35.9567 10.5339 47.8671 9.18169 49.0561C7.49139 50.5424 5.41944 50.0074 2.20243 48.3427C-0.371182 47.0109 -0.105824 45.5286 0.348556 44.9539L10.872 38.2951C10.7266 36.0756 10.6103 31.6721 11.3082 31.8147C12.0061 31.9574 19.0295 28.8942 19.8687 25.2749C19.7597 24.284 19.378 21.9574 18.7237 20.5781C18.0694 19.1988 18.451 15.6832 18.7237 14.0977C17.9058 14.5932 16.161 15.5841 15.7248 15.5841C15.2886 15.5841 13.1439 16.892 12.1261 17.546C11.3991 18.2198 9.9891 19.7384 9.59652 19.9762C9.20393 20.214 8.70917 19.2899 8.58191 18.854L6.61898 19.5674C5.67067 19.1439 3.98038 18.0811 5.77973 15.5841C6.25955 14.9182 8.29112 14.831 9.18169 14.8706L10.872 13.741C14.1072 11.2242 21.2897 7.30142 23.0312 6.30939C25.0273 5.17241 26.2268 4.94198 26.7721 4.58526C27.2083 4.29988 29.6833 4.34744 30.6648 4.58526H32.2247L35.8447 1.25589C36.5172 0.8199 38.0367 -0.0282983 38.7346 0.0668265Z" fill="white" stroke="white"/>
</g>
<defs>
<clipPath id="clip0_1_11">
<rect width="50" height="50" fill="white"/>
</clipPath>
</defs>
</svg>
