<svg width="32" height="32" viewBox="0 0 32 32" fill="none" xmlns="http://www.w3.org/2000/svg">
<path d="M30.4 23.1999V8.7999C30.4 7.4719 29.328 6.3999 28 6.3999H5.584C4.256 6.3999 3.184 7.4719 3.184 8.7999V23.1999C3.184 24.5279 4.256 25.5999 5.584 25.5999H28C29.328 25.5999 30.4 24.5279 30.4 23.1999ZM28.304 8.6239C28.832 9.1519 28.544 9.6959 28.256 9.9679L21.76 15.9199L28 22.4159C28.192 22.6399 28.32 22.9919 28.096 23.2319C27.888 23.4879 27.408 23.4719 27.2 23.3119L20.208 17.3439L16.784 20.4639L13.376 17.3439L6.384 23.3119C6.176 23.4719 5.696 23.4879 5.488 23.2319C5.264 22.9919 5.392 22.6399 5.584 22.4159L11.824 15.9199L5.328 9.9679C5.04 9.6959 4.752 9.1519 5.28 8.6239C5.808 8.0959 6.352 8.3519 6.8 8.7359L16.784 16.7999L26.784 8.7359C27.232 8.3519 27.776 8.0959 28.304 8.6239Z" fill="black"/>
</svg>
