<svg width="33" height="32" viewBox="0 0 33 32" fill="none" xmlns="http://www.w3.org/2000/svg">
<path fill-rule="evenodd" clip-rule="evenodd" d="M10.4533 1.42125C12.0173 1.34925 12.516 1.33325 16.5 1.33325C20.484 1.33325 20.9827 1.35059 22.5453 1.42125C24.108 1.49192 25.1747 1.74125 26.108 2.10259C27.0853 2.47192 27.972 3.04925 28.7053 3.79592C29.452 4.52792 30.028 5.41325 30.396 6.39192C30.7587 7.32525 31.0067 8.39192 31.0787 9.95192C31.1507 11.5186 31.1667 12.0173 31.1667 15.9999C31.1667 19.9839 31.1493 20.4826 31.0787 22.0466C31.008 23.6066 30.7587 24.6733 30.396 25.6066C30.028 26.5854 29.451 27.4722 28.7053 28.2053C27.972 28.9519 27.0853 29.5279 26.108 29.8959C25.1747 30.2586 24.108 30.5066 22.548 30.5786C20.9827 30.6506 20.484 30.6666 16.5 30.6666C12.516 30.6666 12.0173 30.6493 10.4533 30.5786C8.89333 30.5079 7.82666 30.2586 6.89333 29.8959C5.91456 29.5279 5.02776 28.9509 4.29466 28.2053C3.5485 27.4728 2.97108 26.5864 2.60266 25.6079C2.24133 24.6746 1.99333 23.6079 1.92133 22.0479C1.84933 20.4813 1.83333 19.9826 1.83333 15.9999C1.83333 12.0159 1.85066 11.5173 1.92133 9.95459C1.99199 8.39192 2.24133 7.32525 2.60266 6.39192C2.97163 5.41336 3.54949 4.527 4.29599 3.79459C5.02805 3.04859 5.91396 2.47118 6.892 2.10259C7.82533 1.74125 8.892 1.49325 10.452 1.42125H10.4533ZM22.4267 4.06125C20.88 3.99059 20.416 3.97592 16.5 3.97592C12.584 3.97592 12.12 3.99059 10.5733 4.06125C9.14266 4.12659 8.36666 4.36525 7.84933 4.56659C7.16533 4.83325 6.676 5.14925 6.16266 5.66259C5.67606 6.13599 5.30157 6.7123 5.06666 7.34925C4.86533 7.86659 4.62666 8.64259 4.56133 10.0733C4.49066 11.6199 4.476 12.0839 4.476 15.9999C4.476 19.9159 4.49066 20.3799 4.56133 21.9266C4.62666 23.3573 4.86533 24.1333 5.06666 24.6506C5.30133 25.2866 5.676 25.8639 6.16266 26.3373C6.636 26.8239 7.21333 27.1986 7.84933 27.4333C8.36666 27.6346 9.14266 27.8733 10.5733 27.9386C12.12 28.0093 12.5827 28.0239 16.5 28.0239C20.4173 28.0239 20.88 28.0093 22.4267 27.9386C23.8573 27.8733 24.6333 27.6346 25.1507 27.4333C25.8347 27.1666 26.324 26.8506 26.8373 26.3373C27.324 25.8639 27.6987 25.2866 27.9333 24.6506C28.1347 24.1333 28.3733 23.3573 28.4387 21.9266C28.5093 20.3799 28.524 19.9159 28.524 15.9999C28.524 12.0839 28.5093 11.6199 28.4387 10.0733C28.3733 8.64259 28.1347 7.86659 27.9333 7.34925C27.6667 6.66525 27.3507 6.17592 26.8373 5.66259C26.3639 5.17601 25.7876 4.80153 25.1507 4.56659C24.6333 4.36525 23.8573 4.12659 22.4267 4.06125ZM14.6267 20.5213C15.6729 20.9568 16.8378 21.0155 17.9226 20.6875C19.0073 20.3596 19.9445 19.6651 20.5741 18.7229C21.2038 17.7807 21.4867 16.6491 21.3747 15.5214C21.2627 14.3937 20.7627 13.3399 19.96 12.5399C19.4483 12.0286 18.8296 11.637 18.1484 11.3934C17.4673 11.1499 16.7406 11.0604 16.0207 11.1314C15.3007 11.2024 14.6055 11.4322 13.9851 11.8041C13.3646 12.176 12.8343 12.6809 12.4324 13.2824C12.0305 13.8839 11.7669 14.567 11.6607 15.2825C11.5545 15.9981 11.6082 16.7283 11.818 17.4206C12.0279 18.1129 12.3886 18.7501 12.8743 19.2862C13.3599 19.8224 13.9584 20.2442 14.6267 20.5213ZM11.1693 10.6693C11.8694 9.96922 12.7004 9.41392 13.6151 9.03507C14.5297 8.65621 15.51 8.46122 16.5 8.46122C17.49 8.46122 18.4703 8.65621 19.3849 9.03507C20.2996 9.41392 21.1306 9.96922 21.8307 10.6693C22.5307 11.3693 23.086 12.2003 23.4648 13.115C23.8437 14.0296 24.0387 15.0099 24.0387 15.9999C24.0387 16.9899 23.8437 17.9702 23.4648 18.8849C23.086 19.7995 22.5307 20.6306 21.8307 21.3306C20.4169 22.7444 18.4994 23.5386 16.5 23.5386C14.5006 23.5386 12.5831 22.7444 11.1693 21.3306C9.75555 19.9168 8.96129 17.9993 8.96129 15.9999C8.96129 14.0005 9.75555 12.083 11.1693 10.6693ZM25.7107 9.58392C25.8841 9.42028 26.023 9.22349 26.1191 9.00522C26.2151 8.78694 26.2664 8.55161 26.2699 8.31316C26.2734 8.07471 26.229 7.83798 26.1393 7.617C26.0497 7.39602 25.9166 7.19527 25.7479 7.02664C25.5793 6.85801 25.3786 6.72493 25.1576 6.63528C24.9366 6.54562 24.6999 6.50122 24.4614 6.5047C24.223 6.50817 23.9876 6.55946 23.7694 6.65551C23.5511 6.75157 23.3543 6.89045 23.1907 7.06392C22.8724 7.40129 22.6982 7.84941 22.7049 8.31316C22.7117 8.7769 22.8989 9.21976 23.2269 9.54771C23.5548 9.87566 23.9977 10.0629 24.4614 10.0697C24.9252 10.0764 25.3733 9.90217 25.7107 9.58392Z" fill="white"/>
</svg>
