<svg width="33" height="32" viewBox="0 0 33 32" fill="none" xmlns="http://www.w3.org/2000/svg">
<path fill-rule="evenodd" clip-rule="evenodd" d="M1.83333 3.78392C1.83333 3.13396 2.09152 2.51063 2.55111 2.05104C3.0107 1.59145 3.63404 1.33326 4.284 1.33326H28.7133C29.0354 1.33273 29.3545 1.39574 29.6522 1.51868C29.9499 1.64162 30.2204 1.82207 30.4483 2.0497C30.6762 2.27734 30.857 2.54769 30.9802 2.84527C31.1035 3.14285 31.1668 3.46182 31.1667 3.78392V28.2133C31.167 28.5354 31.1038 28.8545 30.9808 29.1522C30.8577 29.4499 30.6771 29.7205 30.4494 29.9483C30.2216 30.1762 29.9512 30.3569 29.6535 30.4802C29.3559 30.6034 29.0368 30.6668 28.7147 30.6666H4.284C3.96206 30.6666 3.64327 30.6032 3.34586 30.4799C3.04844 30.3567 2.77822 30.176 2.55064 29.9483C2.32306 29.7206 2.14257 29.4503 2.01949 29.1528C1.89641 28.8553 1.83315 28.5365 1.83333 28.2146V3.78392ZM13.444 12.5173H17.416V14.5119C17.9893 13.3653 19.456 12.3333 21.66 12.3333C25.8853 12.3333 26.8867 14.6173 26.8867 18.8079V26.5706H22.6107V19.7626C22.6107 17.3759 22.0373 16.0293 20.5813 16.0293C18.5613 16.0293 17.7213 17.4813 17.7213 19.7626V26.5706H13.444V12.5173ZM6.11066 26.3879H10.388V12.3333H6.11066V26.3866V26.3879ZM11 7.74926C11.0081 8.11549 10.9429 8.47964 10.8083 8.82034C10.6737 9.16104 10.4725 9.47144 10.2163 9.7333C9.96014 9.99516 9.65426 10.2032 9.3166 10.3453C8.97894 10.4873 8.61631 10.5605 8.25 10.5605C7.88368 10.5605 7.52105 10.4873 7.18339 10.3453C6.84573 10.2032 6.53985 9.99516 6.28369 9.7333C6.02753 9.47144 5.82625 9.16104 5.69168 8.82034C5.5571 8.47964 5.49193 8.11549 5.5 7.74926C5.51583 7.03039 5.81251 6.34631 6.32651 5.8435C6.84051 5.3407 7.53096 5.05915 8.25 5.05915C8.96903 5.05915 9.65948 5.3407 10.1735 5.8435C10.6875 6.34631 10.9842 7.03039 11 7.74926Z" fill="white"/>
</svg>
