<svg width="33" height="32" viewBox="0 0 33 32" fill="none" xmlns="http://www.w3.org/2000/svg">
<g clip-path="url(#clip0_7_480)">
<path d="M32.024 6.58269C30.9107 7.07602 29.7147 7.40935 28.4573 7.56002C29.7547 6.78374 30.7253 5.56198 31.188 4.12269C29.9691 4.84667 28.6351 5.35628 27.244 5.62935C26.3085 4.63051 25.0694 3.96846 23.7191 3.74599C22.3688 3.52352 20.9828 3.75308 19.7763 4.39902C18.5698 5.04497 17.6104 6.07117 17.0469 7.31829C16.4834 8.56542 16.3474 9.96369 16.66 11.296C14.1902 11.172 11.7742 10.5301 9.56856 9.41189C7.36296 8.2937 5.41712 6.72424 3.85733 4.80535C3.324 5.72535 3.01733 6.79202 3.01733 7.92802C3.01674 8.95068 3.26858 9.95768 3.7505 10.8597C4.23243 11.7617 4.92955 12.5307 5.78 13.0987C4.7937 13.0673 3.82916 12.8008 2.96667 12.3214V12.4014C2.96657 13.8357 3.46271 15.2259 4.37091 16.336C5.27911 17.4462 6.54343 18.2079 7.94933 18.492C7.03438 18.7396 6.07512 18.7761 5.144 18.5987C5.54066 19.8328 6.31333 20.9121 7.35382 21.6853C8.39432 22.4585 9.65056 22.8869 10.9467 22.9107C8.74644 24.6379 6.02918 25.5748 3.232 25.5707C2.73651 25.5708 2.24143 25.5419 1.74933 25.484C4.58863 27.3096 7.89379 28.2784 11.2693 28.2747C22.696 28.2747 28.9427 18.8107 28.9427 10.6027C28.9427 10.336 28.936 10.0667 28.924 9.80002C30.1391 8.92132 31.1879 7.83322 32.0213 6.58669L32.024 6.58269Z" fill="white"/>
</g>
<defs>
<clipPath id="clip0_7_480">
<rect width="32" height="32" fill="white" transform="translate(0.5)"/>
</clipPath>
</defs>
</svg>
